<mxfile host="app.diagrams.net" modified="2024-02-17T20:10:15.237Z" agent="Mozilla/5.0 (Windows NT 10.0; Win64; x64) AppleWebKit/537.36 (KHTML, like Gecko) Chrome/121.0.0.0 Safari/537.36" etag="wUd0_H_56eSaLzNnI1aV" version="23.1.5" type="github">
  <diagram name="Page-1" id="hpfC6C4rZ-5vUPcEvH5o">
    <mxGraphModel dx="1383" dy="732" grid="1" gridSize="10" guides="1" tooltips="1" connect="1" arrows="1" fold="1" page="1" pageScale="1" pageWidth="1100" pageHeight="850" math="0" shadow="0">
      <root>
        <mxCell id="0" />
        <mxCell id="1" parent="0" />
        <mxCell id="QoQmynqA4SF9GIS3_MTl-1" value="bucket1 = new Bucket(&lt;font color=&quot;#00cc66&quot;&gt;this&lt;/font&gt;, &quot;Bucket1&quot;, {buckerProps..})" style="rounded=0;whiteSpace=wrap;html=1;flipV=1;flipH=1;fillColor=#dae8fc;strokeColor=#6c8ebf;fontStyle=0" parent="1" vertex="1">
          <mxGeometry x="600" y="466" width="360" height="20" as="geometry" />
        </mxCell>
        <mxCell id="NvNeomUsXUP52iQ3HjqU-1" value="import as cdk from &#39;aws-cdk-lib&#39;" style="rounded=0;whiteSpace=wrap;html=1;flipV=1;flipH=1;fillColor=#ffcccc;strokeColor=#36393d;fontStyle=1" vertex="1" parent="1">
          <mxGeometry x="877" y="820" width="220" height="20" as="geometry" />
        </mxCell>
        <mxCell id="NvNeomUsXUP52iQ3HjqU-18" style="edgeStyle=orthogonalEdgeStyle;rounded=0;orthogonalLoop=1;jettySize=auto;html=1;entryX=0.5;entryY=1;entryDx=0;entryDy=0;" edge="1" parent="1" source="NvNeomUsXUP52iQ3HjqU-2" target="NvNeomUsXUP52iQ3HjqU-15">
          <mxGeometry relative="1" as="geometry" />
        </mxCell>
        <mxCell id="NvNeomUsXUP52iQ3HjqU-2" value="&lt;font color=&quot;#00cc66&quot;&gt;app&lt;/font&gt; = new cdk.App()" style="rounded=0;whiteSpace=wrap;html=1;flipV=1;flipH=1;fillColor=#dae8fc;strokeColor=#6c8ebf;fontStyle=0" vertex="1" parent="1">
          <mxGeometry x="431" y="159" width="220" height="20" as="geometry" />
        </mxCell>
        <mxCell id="NvNeomUsXUP52iQ3HjqU-44" style="edgeStyle=orthogonalEdgeStyle;rounded=0;orthogonalLoop=1;jettySize=auto;html=1;entryX=0.5;entryY=1;entryDx=0;entryDy=0;" edge="1" parent="1" source="NvNeomUsXUP52iQ3HjqU-3" target="NvNeomUsXUP52iQ3HjqU-22">
          <mxGeometry relative="1" as="geometry">
            <Array as="points">
              <mxPoint x="989" y="250" />
            </Array>
          </mxGeometry>
        </mxCell>
        <mxCell id="NvNeomUsXUP52iQ3HjqU-3" value="bucketStack = new BucketStack(&lt;font color=&quot;#00cc66&quot;&gt;app&lt;/font&gt;, &#39;BucketStack&#39;)" style="rounded=0;whiteSpace=wrap;html=1;flipV=1;flipH=1;fillColor=#dae8fc;strokeColor=#6c8ebf;fontStyle=0" vertex="1" parent="1">
          <mxGeometry x="560" y="240" width="400" height="20" as="geometry" />
        </mxCell>
        <mxCell id="NvNeomUsXUP52iQ3HjqU-32" style="edgeStyle=orthogonalEdgeStyle;rounded=0;orthogonalLoop=1;jettySize=auto;html=1;entryX=0.5;entryY=1;entryDx=0;entryDy=0;" edge="1" parent="1" source="NvNeomUsXUP52iQ3HjqU-4" target="NvNeomUsXUP52iQ3HjqU-21">
          <mxGeometry relative="1" as="geometry">
            <Array as="points">
              <mxPoint x="90" y="250" />
            </Array>
          </mxGeometry>
        </mxCell>
        <mxCell id="NvNeomUsXUP52iQ3HjqU-4" value="handlerStack = new HandlerStack(&lt;font color=&quot;#00cc66&quot;&gt;app&lt;/font&gt;, &#39;HandlerStack&#39;, extendedProps..)" style="rounded=0;whiteSpace=wrap;html=1;flipV=1;flipH=1;fillColor=#dae8fc;strokeColor=#6c8ebf;fontStyle=0" vertex="1" parent="1">
          <mxGeometry x="120" y="240" width="402" height="20" as="geometry" />
        </mxCell>
        <mxCell id="NvNeomUsXUP52iQ3HjqU-37" style="edgeStyle=orthogonalEdgeStyle;rounded=0;orthogonalLoop=1;jettySize=auto;html=1;entryX=0.5;entryY=1;entryDx=0;entryDy=0;" edge="1" parent="1" source="NvNeomUsXUP52iQ3HjqU-5" target="NvNeomUsXUP52iQ3HjqU-23">
          <mxGeometry relative="1" as="geometry">
            <Array as="points">
              <mxPoint x="113" y="480" />
            </Array>
          </mxGeometry>
        </mxCell>
        <mxCell id="NvNeomUsXUP52iQ3HjqU-5" value="new LambdaFunction(&lt;font color=&quot;#00cc66&quot;&gt;this&lt;/font&gt;, &#39;LambdaFunction&#39;, FunctionProps..)" style="rounded=0;whiteSpace=wrap;html=1;flipV=1;flipH=1;fillColor=#dae8fc;strokeColor=#6c8ebf;fontStyle=0" vertex="1" parent="1">
          <mxGeometry x="151" y="466" width="340" height="20" as="geometry" />
        </mxCell>
        <mxCell id="NvNeomUsXUP52iQ3HjqU-19" style="edgeStyle=orthogonalEdgeStyle;rounded=0;orthogonalLoop=1;jettySize=auto;html=1;entryX=0.5;entryY=1;entryDx=0;entryDy=0;" edge="1" parent="1" source="NvNeomUsXUP52iQ3HjqU-15" target="NvNeomUsXUP52iQ3HjqU-17">
          <mxGeometry relative="1" as="geometry" />
        </mxCell>
        <mxCell id="NvNeomUsXUP52iQ3HjqU-15" value="Stage" style="rounded=0;whiteSpace=wrap;html=1;flipV=1;flipH=1;fillColor=#dae8fc;strokeColor=#6c8ebf;fontStyle=0" vertex="1" parent="1">
          <mxGeometry x="496" y="105" width="90" height="20" as="geometry" />
        </mxCell>
        <mxCell id="NvNeomUsXUP52iQ3HjqU-17" value="Construct" style="rounded=0;whiteSpace=wrap;html=1;flipV=1;flipH=1;fillColor=#d5e8d4;strokeColor=#82b366;fontStyle=0" vertex="1" parent="1">
          <mxGeometry x="501" y="45" width="80" height="20" as="geometry" />
        </mxCell>
        <mxCell id="NvNeomUsXUP52iQ3HjqU-33" style="edgeStyle=orthogonalEdgeStyle;rounded=0;orthogonalLoop=1;jettySize=auto;html=1;entryX=0.5;entryY=1;entryDx=0;entryDy=0;" edge="1" parent="1" source="NvNeomUsXUP52iQ3HjqU-21" target="NvNeomUsXUP52iQ3HjqU-29">
          <mxGeometry relative="1" as="geometry">
            <Array as="points">
              <mxPoint x="50" y="210" />
            </Array>
          </mxGeometry>
        </mxCell>
        <mxCell id="NvNeomUsXUP52iQ3HjqU-21" value="Stack" style="rounded=0;whiteSpace=wrap;html=1;flipV=1;flipH=1;fillColor=#dae8fc;strokeColor=#6c8ebf;fontStyle=0" vertex="1" parent="1">
          <mxGeometry x="60" y="200" width="60" height="20" as="geometry" />
        </mxCell>
        <mxCell id="NvNeomUsXUP52iQ3HjqU-46" style="edgeStyle=orthogonalEdgeStyle;rounded=0;orthogonalLoop=1;jettySize=auto;html=1;" edge="1" parent="1" source="NvNeomUsXUP52iQ3HjqU-22">
          <mxGeometry relative="1" as="geometry">
            <mxPoint x="1040" y="180" as="targetPoint" />
          </mxGeometry>
        </mxCell>
        <mxCell id="NvNeomUsXUP52iQ3HjqU-22" value="Stack" style="rounded=0;whiteSpace=wrap;html=1;flipV=1;flipH=1;fillColor=#dae8fc;strokeColor=#6c8ebf;fontStyle=0" vertex="1" parent="1">
          <mxGeometry x="959" y="201" width="60" height="20" as="geometry" />
        </mxCell>
        <mxCell id="NvNeomUsXUP52iQ3HjqU-39" style="edgeStyle=orthogonalEdgeStyle;rounded=0;orthogonalLoop=1;jettySize=auto;html=1;entryX=0.5;entryY=1;entryDx=0;entryDy=0;" edge="1" parent="1" source="NvNeomUsXUP52iQ3HjqU-23" target="NvNeomUsXUP52iQ3HjqU-25">
          <mxGeometry relative="1" as="geometry">
            <Array as="points">
              <mxPoint x="113" y="420" />
              <mxPoint x="81" y="420" />
            </Array>
          </mxGeometry>
        </mxCell>
        <mxCell id="NvNeomUsXUP52iQ3HjqU-23" value="&lt;font color=&quot;#00cc66&quot;&gt;this&lt;/font&gt; = Function" style="rounded=0;whiteSpace=wrap;html=1;flipV=1;flipH=1;fillColor=#dae8fc;strokeColor=#6c8ebf;fontStyle=0" vertex="1" parent="1">
          <mxGeometry x="68" y="430" width="90" height="20" as="geometry" />
        </mxCell>
        <mxCell id="NvNeomUsXUP52iQ3HjqU-40" style="edgeStyle=orthogonalEdgeStyle;rounded=0;orthogonalLoop=1;jettySize=auto;html=1;entryX=0.5;entryY=1;entryDx=0;entryDy=0;" edge="1" parent="1" source="NvNeomUsXUP52iQ3HjqU-25" target="NvNeomUsXUP52iQ3HjqU-27">
          <mxGeometry relative="1" as="geometry">
            <Array as="points">
              <mxPoint x="81" y="370" />
              <mxPoint x="61" y="370" />
            </Array>
          </mxGeometry>
        </mxCell>
        <mxCell id="NvNeomUsXUP52iQ3HjqU-25" value="FunctionBase" style="rounded=0;whiteSpace=wrap;html=1;flipV=1;flipH=1;fillColor=#dae8fc;strokeColor=#6c8ebf;fontStyle=0" vertex="1" parent="1">
          <mxGeometry x="36" y="384" width="90" height="20" as="geometry" />
        </mxCell>
        <mxCell id="NvNeomUsXUP52iQ3HjqU-41" style="edgeStyle=orthogonalEdgeStyle;rounded=0;orthogonalLoop=1;jettySize=auto;html=1;entryX=0.5;entryY=1;entryDx=0;entryDy=0;" edge="1" parent="1" source="NvNeomUsXUP52iQ3HjqU-27" target="NvNeomUsXUP52iQ3HjqU-28">
          <mxGeometry relative="1" as="geometry">
            <Array as="points">
              <mxPoint x="61" y="320" />
              <mxPoint x="43" y="320" />
            </Array>
          </mxGeometry>
        </mxCell>
        <mxCell id="NvNeomUsXUP52iQ3HjqU-27" value="Resource" style="rounded=0;whiteSpace=wrap;html=1;flipV=1;flipH=1;fillColor=#dae8fc;strokeColor=#6c8ebf;fontStyle=0" vertex="1" parent="1">
          <mxGeometry x="16" y="336" width="90" height="20" as="geometry" />
        </mxCell>
        <mxCell id="NvNeomUsXUP52iQ3HjqU-63" style="edgeStyle=orthogonalEdgeStyle;rounded=0;orthogonalLoop=1;jettySize=auto;html=1;entryX=0.5;entryY=1;entryDx=0;entryDy=0;" edge="1" parent="1" source="NvNeomUsXUP52iQ3HjqU-28" target="NvNeomUsXUP52iQ3HjqU-4">
          <mxGeometry relative="1" as="geometry" />
        </mxCell>
        <mxCell id="NvNeomUsXUP52iQ3HjqU-28" value="Construct" style="rounded=0;whiteSpace=wrap;html=1;flipV=1;flipH=1;fillColor=#d5e8d4;strokeColor=#82b366;fontStyle=0" vertex="1" parent="1">
          <mxGeometry x="3" y="285" width="80" height="20" as="geometry" />
        </mxCell>
        <mxCell id="NvNeomUsXUP52iQ3HjqU-66" style="edgeStyle=orthogonalEdgeStyle;rounded=0;orthogonalLoop=1;jettySize=auto;html=1;entryX=0;entryY=0.5;entryDx=0;entryDy=0;" edge="1" parent="1" source="NvNeomUsXUP52iQ3HjqU-29" target="NvNeomUsXUP52iQ3HjqU-2">
          <mxGeometry relative="1" as="geometry">
            <mxPoint x="420" y="170" as="targetPoint" />
          </mxGeometry>
        </mxCell>
        <mxCell id="NvNeomUsXUP52iQ3HjqU-29" value="Construct" style="rounded=0;whiteSpace=wrap;html=1;flipV=1;flipH=1;fillColor=#d5e8d4;strokeColor=#82b366;fontStyle=0" vertex="1" parent="1">
          <mxGeometry x="10" y="159" width="80" height="20" as="geometry" />
        </mxCell>
        <mxCell id="NvNeomUsXUP52iQ3HjqU-30" value="Construct" style="rounded=0;whiteSpace=wrap;html=1;flipV=1;flipH=1;fillColor=#d5e8d4;strokeColor=#82b366;fontStyle=0" vertex="1" parent="1">
          <mxGeometry x="1000" y="159" width="80" height="20" as="geometry" />
        </mxCell>
        <mxCell id="NvNeomUsXUP52iQ3HjqU-58" style="edgeStyle=orthogonalEdgeStyle;rounded=0;orthogonalLoop=1;jettySize=auto;html=1;entryX=0.5;entryY=1;entryDx=0;entryDy=0;" edge="1" parent="1" source="NvNeomUsXUP52iQ3HjqU-51" target="NvNeomUsXUP52iQ3HjqU-53">
          <mxGeometry relative="1" as="geometry">
            <Array as="points">
              <mxPoint x="972" y="420" />
              <mxPoint x="1014" y="420" />
            </Array>
          </mxGeometry>
        </mxCell>
        <mxCell id="NvNeomUsXUP52iQ3HjqU-51" value="&lt;font color=&quot;#00cc66&quot;&gt;this&lt;/font&gt; = Bucket" style="rounded=0;whiteSpace=wrap;html=1;flipV=1;flipH=1;fillColor=#dae8fc;strokeColor=#6c8ebf;fontStyle=0" vertex="1" parent="1">
          <mxGeometry x="927" y="430" width="90" height="20" as="geometry" />
        </mxCell>
        <mxCell id="NvNeomUsXUP52iQ3HjqU-59" style="edgeStyle=orthogonalEdgeStyle;rounded=0;orthogonalLoop=1;jettySize=auto;html=1;entryX=0.5;entryY=1;entryDx=0;entryDy=0;" edge="1" parent="1" source="NvNeomUsXUP52iQ3HjqU-53" target="NvNeomUsXUP52iQ3HjqU-55">
          <mxGeometry relative="1" as="geometry">
            <Array as="points">
              <mxPoint x="1014" y="370" />
              <mxPoint x="1041" y="370" />
            </Array>
          </mxGeometry>
        </mxCell>
        <mxCell id="NvNeomUsXUP52iQ3HjqU-53" value="BucketBase" style="rounded=0;whiteSpace=wrap;html=1;flipV=1;flipH=1;fillColor=#dae8fc;strokeColor=#6c8ebf;fontStyle=0" vertex="1" parent="1">
          <mxGeometry x="969" y="384" width="90" height="20" as="geometry" />
        </mxCell>
        <mxCell id="NvNeomUsXUP52iQ3HjqU-60" style="edgeStyle=orthogonalEdgeStyle;rounded=0;orthogonalLoop=1;jettySize=auto;html=1;entryX=0.5;entryY=1;entryDx=0;entryDy=0;" edge="1" parent="1" source="NvNeomUsXUP52iQ3HjqU-55" target="NvNeomUsXUP52iQ3HjqU-56">
          <mxGeometry relative="1" as="geometry">
            <Array as="points">
              <mxPoint x="1041" y="320" />
              <mxPoint x="1057" y="320" />
            </Array>
          </mxGeometry>
        </mxCell>
        <mxCell id="NvNeomUsXUP52iQ3HjqU-55" value="Resource" style="rounded=0;whiteSpace=wrap;html=1;flipV=1;flipH=1;fillColor=#dae8fc;strokeColor=#6c8ebf;fontStyle=0" vertex="1" parent="1">
          <mxGeometry x="996" y="336" width="90" height="20" as="geometry" />
        </mxCell>
        <mxCell id="NvNeomUsXUP52iQ3HjqU-64" style="edgeStyle=orthogonalEdgeStyle;rounded=0;orthogonalLoop=1;jettySize=auto;html=1;entryX=0.5;entryY=1;entryDx=0;entryDy=0;" edge="1" parent="1" source="NvNeomUsXUP52iQ3HjqU-56" target="NvNeomUsXUP52iQ3HjqU-3">
          <mxGeometry relative="1" as="geometry" />
        </mxCell>
        <mxCell id="NvNeomUsXUP52iQ3HjqU-56" value="Construct" style="rounded=0;whiteSpace=wrap;html=1;flipV=1;flipH=1;fillColor=#d5e8d4;strokeColor=#82b366;fontStyle=0" vertex="1" parent="1">
          <mxGeometry x="1017" y="285" width="80" height="20" as="geometry" />
        </mxCell>
        <mxCell id="NvNeomUsXUP52iQ3HjqU-57" style="edgeStyle=orthogonalEdgeStyle;rounded=0;orthogonalLoop=1;jettySize=auto;html=1;" edge="1" parent="1" source="QoQmynqA4SF9GIS3_MTl-1" target="NvNeomUsXUP52iQ3HjqU-51">
          <mxGeometry relative="1" as="geometry">
            <Array as="points">
              <mxPoint x="972" y="476" />
            </Array>
          </mxGeometry>
        </mxCell>
        <mxCell id="NvNeomUsXUP52iQ3HjqU-65" style="edgeStyle=orthogonalEdgeStyle;rounded=0;orthogonalLoop=1;jettySize=auto;html=1;" edge="1" parent="1" source="NvNeomUsXUP52iQ3HjqU-30" target="NvNeomUsXUP52iQ3HjqU-2">
          <mxGeometry relative="1" as="geometry" />
        </mxCell>
        <mxCell id="NvNeomUsXUP52iQ3HjqU-67" value="BucketProps" style="rounded=0;whiteSpace=wrap;html=1;flipV=1;flipH=1;fillColor=#ffcc99;strokeColor=#36393d;fontStyle=0;" vertex="1" parent="1">
          <mxGeometry x="780" y="430" width="99" height="20" as="geometry" />
        </mxCell>
        <mxCell id="NvNeomUsXUP52iQ3HjqU-70" style="edgeStyle=orthogonalEdgeStyle;rounded=0;orthogonalLoop=1;jettySize=auto;html=1;entryX=0.5;entryY=1;entryDx=0;entryDy=0;" edge="1" parent="1" source="NvNeomUsXUP52iQ3HjqU-68" target="NvNeomUsXUP52iQ3HjqU-69">
          <mxGeometry relative="1" as="geometry">
            <Array as="points">
              <mxPoint x="340" y="440" />
            </Array>
          </mxGeometry>
        </mxCell>
        <mxCell id="NvNeomUsXUP52iQ3HjqU-68" value="FunctionProps" style="rounded=0;whiteSpace=wrap;html=1;flipV=1;flipH=1;fillColor=#ffcc99;strokeColor=#36393d;fontStyle=0;" vertex="1" parent="1">
          <mxGeometry x="200" y="430" width="100" height="20" as="geometry" />
        </mxCell>
        <mxCell id="NvNeomUsXUP52iQ3HjqU-69" value="FunctionOptions" style="rounded=0;whiteSpace=wrap;html=1;flipV=1;flipH=1;fillColor=#ffcc99;strokeColor=#36393d;fontStyle=0;" vertex="1" parent="1">
          <mxGeometry x="290" y="390" width="100" height="20" as="geometry" />
        </mxCell>
        <mxCell id="NvNeomUsXUP52iQ3HjqU-73" value="" style="endArrow=none;dashed=1;html=1;dashPattern=1 3;strokeWidth=2;rounded=0;exitX=1;exitY=0.5;exitDx=0;exitDy=0;" edge="1" parent="1" source="NvNeomUsXUP52iQ3HjqU-23">
          <mxGeometry width="50" height="50" relative="1" as="geometry">
            <mxPoint x="400" y="480" as="sourcePoint" />
            <mxPoint x="200" y="440" as="targetPoint" />
          </mxGeometry>
        </mxCell>
        <mxCell id="NvNeomUsXUP52iQ3HjqU-74" value="" style="endArrow=none;dashed=1;html=1;dashPattern=1 3;strokeWidth=2;rounded=0;exitX=1;exitY=0.5;exitDx=0;exitDy=0;" edge="1" parent="1">
          <mxGeometry width="50" height="50" relative="1" as="geometry">
            <mxPoint x="883" y="440" as="sourcePoint" />
            <mxPoint x="925" y="440" as="targetPoint" />
          </mxGeometry>
        </mxCell>
      </root>
    </mxGraphModel>
  </diagram>
</mxfile>
